<svg width="25" height="24" viewBox="0 0 25 24" fill="none" xmlns="http://www.w3.org/2000/svg">
<g id="General / Grid / 24px">
<path id="Union" fill-rule="evenodd" clip-rule="evenodd" d="M8 2.125C5.03147 2.125 2.625 4.53147 2.625 7.5V16.5C2.625 19.4685 5.03147 21.875 8 21.875H17C19.9685 21.875 22.375 19.4685 22.375 16.5V7.5C22.375 4.53147 19.9685 2.125 17 2.125H8ZM4.375 7.5C4.375 5.49797 5.99797 3.875 8 3.875H11.625V20.125H8C5.99797 20.125 4.375 18.502 4.375 16.5V7.5ZM13.375 20.125H17C19.002 20.125 20.625 18.502 20.625 16.5V12.875H13.375V20.125ZM20.625 11.125V7.5C20.625 5.49797 19.002 3.875 17 3.875H13.375V11.125H20.625Z" fill="#262626"/>
</g>
</svg>
