<svg width="32" height="32" viewBox="0 0 32 32" fill="none" xmlns="http://www.w3.org/2000/svg">
<g id="Mode=Filled">
<path id="Union" d="M19.1024 5.4251C17.3011 3.93903 14.6989 3.93903 12.8976 5.4251L6.89763 10.3751C5.77511 11.3012 5.125 12.6803 5.125 14.1355V22C5.125 24.6924 7.30761 26.875 10 26.875H13C13.4832 26.875 13.875 26.4832 13.875 26V22C13.875 20.8264 14.8264 19.875 16 19.875C17.1736 19.875 18.125 20.8264 18.125 22V26C18.125 26.4832 18.5168 26.875 19 26.875H22C24.6924 26.875 26.875 24.6924 26.875 22V14.1355C26.875 12.6803 26.2249 11.3012 25.1024 10.3751L19.1024 5.4251Z" fill="#B2B2B2"/>
</g>
</svg>
