<svg width="24" height="24" viewBox="0 0 24 24" fill="none" xmlns="http://www.w3.org/2000/svg">
<g id="Mode=Contour" clip-path="url(#clip0_18_929)">
<path id="Ellipse 62 (Stroke)" fill-rule="evenodd" clip-rule="evenodd" d="M18.9321 17.2635C18.8722 16.8702 18.9481 16.4681 19.1474 16.1237C19.8483 14.912 20.25 13.5056 20.25 12C20.25 7.44365 16.5563 3.75 12 3.75C7.44365 3.75 3.75 7.44365 3.75 12C3.75 16.5563 7.44365 20.25 12 20.25C13.5056 20.25 14.912 19.8483 16.1237 19.1474C16.5925 18.8762 17.1603 18.8373 17.6617 19.0421L19.3053 19.7134L18.9321 17.2635ZM20.6622 17C21.513 15.5291 22 13.8214 22 12C22 6.47715 17.5228 2 12 2C6.47715 2 2 6.47715 2 12C2 17.5228 6.47715 22 12 22C13.8214 22 15.5291 21.513 17 20.6622L19.8678 21.8334C20.5868 22.127 21.3514 21.5248 21.2345 20.757L20.6622 17Z" fill="#B2B2B2"/>
</g>
<defs>
<clipPath id="clip0_18_929">
<rect width="24" height="24" fill="white"/>
</clipPath>
</defs>
</svg>
