<svg width="24" height="24" viewBox="0 0 24 24" fill="none" xmlns="http://www.w3.org/2000/svg">
<g id="Mode=Contour">
<g id="Vector">
<path fill-rule="evenodd" clip-rule="evenodd" d="M10.1387 4.37139C9.91754 4.64808 9.57506 5.01437 9.0471 5.20009C7.4764 5.75259 6.46449 7.35378 6.31808 9.25721L6.15024 11.4391C6.07844 12.3725 5.80028 13.2784 5.33583 14.0912L4.62972 15.3271C4.29613 15.9109 4.27636 16.6229 4.57705 17.2243C4.91775 17.9059 5.61426 18.3364 6.37618 18.3364H17.5774C18.2618 18.3364 18.901 17.9943 19.2807 17.4248C19.7526 16.7171 19.7376 15.7913 19.2432 15.0992L18.6102 14.2131C18.0027 13.3627 17.6393 12.3625 17.5591 11.3205L17.4004 9.25721C17.254 7.35378 16.2421 5.75259 14.6714 5.20009C14.1434 5.01437 13.8009 4.64808 13.5797 4.37139C13.472 4.23666 13.3712 4.09425 13.2882 3.97688L13.2782 3.96278C13.1871 3.83415 13.111 3.72726 13.0309 3.62612C12.8745 3.42882 12.7374 3.29975 12.5837 3.21286C12.4392 3.13116 12.222 3.05396 11.8592 3.05396C11.4965 3.05396 11.2793 3.13116 11.1348 3.21286C10.9811 3.29975 10.844 3.42882 10.6876 3.62612C10.6075 3.72726 10.5314 3.83415 10.4403 3.96278L10.4303 3.97692C10.3472 4.09429 10.2465 4.23667 10.1387 4.37139ZM10.0974 1.37785C10.5876 1.10074 11.1681 0.946045 11.8592 0.946045C12.5504 0.946045 13.1309 1.10074 13.621 1.37785C14.102 1.64976 14.4368 2.00641 14.6828 2.31674C14.8024 2.46765 14.909 2.6183 14.9956 2.74056L14.9986 2.74484C15.0919 2.87653 15.1598 2.97205 15.2262 3.05511C15.3187 3.1709 15.3661 3.20637 15.3774 3.21393C17.9494 4.12206 19.3115 6.61809 19.5021 9.09554L19.6608 11.1588C19.7115 11.8177 19.9413 12.4501 20.3254 12.9878L20.9584 13.8739C21.962 15.2787 21.9923 17.1578 21.0345 18.5942C20.2639 19.75 18.9666 20.4443 17.5774 20.4443H6.37618C4.81579 20.4443 3.38935 19.5626 2.69161 18.1669C2.07581 16.9351 2.11629 15.4771 2.79948 14.2813L3.5056 13.0455C3.81522 12.5036 4.00066 11.8997 4.04853 11.2774L4.21637 9.09554C4.40694 6.61809 5.76913 4.12206 8.34104 3.21393C8.35242 3.20637 8.39975 3.1709 8.49233 3.05511C8.55873 2.97205 8.62663 2.87653 8.71986 2.74484L8.72288 2.74057C8.80943 2.6183 8.91608 2.46765 9.0357 2.31674C9.28168 2.00641 9.61644 1.64976 10.0974 1.37785ZM8.3383 3.21563C8.33786 3.21586 8.3383 3.21562 8.3383 3.21563V3.21563ZM15.3802 3.21563C15.3802 3.21563 15.3806 3.2159 15.3802 3.21563V3.21563Z" fill="#BBBBBB"/>
<path fill-rule="evenodd" clip-rule="evenodd" d="M9.87525 19.5C9.87525 20.6736 10.8266 21.625 12.0002 21.625C13.1739 21.625 14.1252 20.6736 14.1252 19.5H15.8752C15.8752 21.6401 14.1404 23.375 12.0002 23.375C9.86014 23.375 8.12525 21.6401 8.12525 19.5H9.87525Z" fill="#BBBBBB"/>
</g>
</g>
</svg>
