<svg width="25" height="24" viewBox="0 0 25 24" fill="none" xmlns="http://www.w3.org/2000/svg">
<g id="Social / User / 24px /">
<g id="Vector">
<path fill-rule="evenodd" clip-rule="evenodd" d="M12.5 3.875C10.7741 3.875 9.375 5.27411 9.375 7C9.375 8.72589 10.7741 10.125 12.5 10.125C14.2259 10.125 15.625 8.72589 15.625 7C15.625 5.27411 14.2259 3.875 12.5 3.875ZM7.625 7C7.625 4.30761 9.80761 2.125 12.5 2.125C15.1924 2.125 17.375 4.30761 17.375 7C17.375 9.69239 15.1924 11.875 12.5 11.875C9.80761 11.875 7.625 9.69239 7.625 7Z" fill="#BBBBBB"/>
<path fill-rule="evenodd" clip-rule="evenodd" d="M12.5 15.375C8.63392 15.375 6.60318 16.6299 5.74762 17.3517C5.52132 17.5426 5.375 17.8832 5.375 18.3638C5.375 19.6126 6.38736 20.625 7.63616 20.625H17.3638C18.6126 20.625 19.625 19.6126 19.625 18.3638C19.625 17.8832 19.4787 17.5426 19.2524 17.3517C18.3968 16.6299 16.3661 15.375 12.5 15.375ZM4.61924 16.014C5.7863 15.0295 8.21548 13.625 12.5 13.625C16.7845 13.625 19.2137 15.0295 20.3808 16.014C21.1314 16.6472 21.375 17.5663 21.375 18.3638C21.375 20.5791 19.5791 22.375 17.3638 22.375H7.63616C5.42086 22.375 3.625 20.5791 3.625 18.3638C3.625 17.5663 3.86862 16.6472 4.61924 16.014Z" fill="#BBBBBB"/>
</g>
</g>
</svg>
