<svg width="32" height="32" viewBox="0 0 32 32" fill="none" xmlns="http://www.w3.org/2000/svg">
<g id="Mode=Contour">
<g id="Union">
<path fill-rule="evenodd" clip-rule="evenodd" d="M9.81683 12.934C9.81683 11.8358 11.0408 11.1808 11.9545 11.7899L16.5532 14.8557C17.3695 15.3999 17.3695 16.5996 16.5532 17.1438L11.9545 20.2096C11.0408 20.8187 9.81683 20.1637 9.81683 19.0655L9.81683 12.934ZM11.5668 18.3648L15.1144 15.9998L11.5668 13.6347V18.3648Z" fill="#BBBBBB"/>
<path fill-rule="evenodd" clip-rule="evenodd" d="M2.125 11.6665C2.125 8.42183 4.75533 5.7915 8 5.7915H18C21.0802 5.7915 23.6067 8.16187 23.855 11.178L27.6176 10.3941C28.7819 10.1515 29.875 11.0404 29.875 12.2297V19.7701C29.875 20.9594 28.7819 21.8482 27.6176 21.6057L23.855 20.8218C23.6066 23.8379 21.0801 26.2082 18 26.2082H8C4.75533 26.2082 2.125 23.5778 2.125 20.3332V11.6665ZM22.125 11.6665C22.125 9.38833 20.2782 7.5415 18 7.5415H8C5.72183 7.5415 3.875 9.38833 3.875 11.6665V20.3332C3.875 22.6113 5.72183 24.4582 8 24.4582H18C20.2782 24.4582 22.125 22.6113 22.125 20.3332V11.6665ZM23.875 18.9367C23.875 18.996 23.9165 19.047 23.9745 19.0591L27.9745 19.8925C28.0521 19.9086 28.125 19.8494 28.125 19.7701V12.2297C28.125 12.1504 28.0521 12.0911 27.9745 12.1073L23.9745 12.9406C23.9165 12.9527 23.875 13.0038 23.875 13.063V18.9367Z" fill="#BBBBBB"/>
</g>
</g>
</svg>
