<svg width="32" height="32" viewBox="0 0 32 32" fill="none" xmlns="http://www.w3.org/2000/svg">
<g id="Mode=Filled">
<path id="Union" fill-rule="evenodd" clip-rule="evenodd" d="M21.2756 23.0433C19.6751 24.2706 17.6727 25 15.5 25C10.2533 25 6 20.7467 6 15.5C6 10.2533 10.2533 6 15.5 6C20.7467 6 25 10.2533 25 15.5C25 17.6727 24.2706 19.6751 23.0433 21.2756L26.8839 25.1161C27.372 25.6043 27.372 26.3957 26.8839 26.8839C26.3957 27.372 25.6043 27.372 25.1161 26.8839L21.2756 23.0433ZM22.5 15.5C22.5 19.366 19.366 22.5 15.5 22.5C11.634 22.5 8.5 19.366 8.5 15.5C8.5 11.634 11.634 8.5 15.5 8.5C19.366 8.5 22.5 11.634 22.5 15.5Z" fill="#B2B2B2"/>
</g>
</svg>
